<mxfile host="app.diagrams.net" agent="Mozilla/5.0 (Windows NT 10.0; Win64; x64) AppleWebKit/537.36 (KHTML, like Gecko) Chrome/129.0.0.0 Safari/537.36" version="24.7.17">
  <diagram name="Página-1" id="nuGUdiO4_pWzOSnSq1jA">
    <mxGraphModel dx="2390" dy="1287" grid="1" gridSize="10" guides="1" tooltips="1" connect="1" arrows="1" fold="1" page="1" pageScale="1" pageWidth="827" pageHeight="1169" math="0" shadow="0">
      <root>
        <mxCell id="0" />
        <mxCell id="1" parent="0" />
        <mxCell id="HRh51hl5NNQhgZ8yLi9s-15" value="" style="ellipse;whiteSpace=wrap;html=1;aspect=fixed;" vertex="1" parent="1">
          <mxGeometry x="563" y="543" width="54" height="54" as="geometry" />
        </mxCell>
        <mxCell id="HRh51hl5NNQhgZ8yLi9s-1" value="&lt;b&gt;act&lt;/b&gt;Cadastro" style="shape=umlFrame;whiteSpace=wrap;html=1;pointerEvents=0;fillColor=default;strokeColor=default;perimeterSpacing=0;strokeWidth=1;gradientColor=none;swimlaneFillColor=none;width=120;height=30;align=left;" vertex="1" parent="1">
          <mxGeometry x="236" y="320" width="664" height="310" as="geometry" />
        </mxCell>
        <mxCell id="HRh51hl5NNQhgZ8yLi9s-19" style="edgeStyle=orthogonalEdgeStyle;rounded=0;orthogonalLoop=1;jettySize=auto;html=1;entryX=0;entryY=0.5;entryDx=0;entryDy=0;" edge="1" parent="1" source="HRh51hl5NNQhgZ8yLi9s-6" target="HRh51hl5NNQhgZ8yLi9s-7">
          <mxGeometry relative="1" as="geometry" />
        </mxCell>
        <mxCell id="HRh51hl5NNQhgZ8yLi9s-6" value="" style="ellipse;whiteSpace=wrap;html=1;aspect=fixed;fillColor=#f5f5f5;gradientColor=#000000;strokeColor=#666666;" vertex="1" parent="1">
          <mxGeometry x="270" y="390" width="40" height="40" as="geometry" />
        </mxCell>
        <mxCell id="HRh51hl5NNQhgZ8yLi9s-20" style="edgeStyle=orthogonalEdgeStyle;rounded=0;orthogonalLoop=1;jettySize=auto;html=1;entryX=0;entryY=0.5;entryDx=0;entryDy=0;" edge="1" parent="1" source="HRh51hl5NNQhgZ8yLi9s-7" target="HRh51hl5NNQhgZ8yLi9s-10">
          <mxGeometry relative="1" as="geometry" />
        </mxCell>
        <mxCell id="HRh51hl5NNQhgZ8yLi9s-7" value="&lt;font style=&quot;font-size: 10px;&quot;&gt;Usuário insere dados pessoais&lt;/font&gt;" style="rounded=1;whiteSpace=wrap;html=1;fillColor=#fff2cc;gradientColor=#FFE599;strokeColor=#d6b656;" vertex="1" parent="1">
          <mxGeometry x="380" y="385" width="95" height="50" as="geometry" />
        </mxCell>
        <mxCell id="HRh51hl5NNQhgZ8yLi9s-16" style="edgeStyle=orthogonalEdgeStyle;rounded=0;orthogonalLoop=1;jettySize=auto;html=1;entryX=0.5;entryY=0;entryDx=0;entryDy=0;" edge="1" parent="1" source="HRh51hl5NNQhgZ8yLi9s-10" target="HRh51hl5NNQhgZ8yLi9s-15">
          <mxGeometry relative="1" as="geometry" />
        </mxCell>
        <mxCell id="HRh51hl5NNQhgZ8yLi9s-22" style="edgeStyle=orthogonalEdgeStyle;rounded=0;orthogonalLoop=1;jettySize=auto;html=1;entryX=0;entryY=0.5;entryDx=0;entryDy=0;" edge="1" parent="1" source="HRh51hl5NNQhgZ8yLi9s-10" target="HRh51hl5NNQhgZ8yLi9s-21">
          <mxGeometry relative="1" as="geometry" />
        </mxCell>
        <mxCell id="HRh51hl5NNQhgZ8yLi9s-10" value="" style="rhombus;whiteSpace=wrap;html=1;fillColor=#fff2cc;gradientColor=#FFE599;strokeColor=#d6b656;" vertex="1" parent="1">
          <mxGeometry x="563" y="395" width="54" height="30" as="geometry" />
        </mxCell>
        <mxCell id="HRh51hl5NNQhgZ8yLi9s-11" value="&lt;font style=&quot;font-size: 10px;&quot;&gt;E-mail cadastrado?&lt;/font&gt;" style="text;html=1;align=center;verticalAlign=middle;resizable=0;points=[];autosize=1;strokeColor=none;fillColor=none;" vertex="1" parent="1">
          <mxGeometry x="535" y="365" width="110" height="30" as="geometry" />
        </mxCell>
        <mxCell id="HRh51hl5NNQhgZ8yLi9s-13" value="&lt;font style=&quot;font-size: 10px;&quot;&gt;Não&lt;/font&gt;" style="text;html=1;align=center;verticalAlign=middle;resizable=0;points=[];autosize=1;strokeColor=none;fillColor=none;" vertex="1" parent="1">
          <mxGeometry x="650" y="380" width="40" height="30" as="geometry" />
        </mxCell>
        <mxCell id="HRh51hl5NNQhgZ8yLi9s-14" value="" style="ellipse;whiteSpace=wrap;html=1;aspect=fixed;fillColor=#f5f5f5;gradientColor=#000000;strokeColor=#666666;" vertex="1" parent="1">
          <mxGeometry x="570" y="550" width="40" height="40" as="geometry" />
        </mxCell>
        <mxCell id="HRh51hl5NNQhgZ8yLi9s-17" value="&lt;font style=&quot;font-size: 10px;&quot;&gt;Sim&lt;/font&gt;" style="text;html=1;align=center;verticalAlign=middle;resizable=0;points=[];autosize=1;strokeColor=none;fillColor=none;" vertex="1" parent="1">
          <mxGeometry x="540" y="460" width="40" height="30" as="geometry" />
        </mxCell>
        <mxCell id="HRh51hl5NNQhgZ8yLi9s-24" style="edgeStyle=orthogonalEdgeStyle;rounded=0;orthogonalLoop=1;jettySize=auto;html=1;entryX=1;entryY=0.5;entryDx=0;entryDy=0;" edge="1" parent="1" source="HRh51hl5NNQhgZ8yLi9s-21" target="HRh51hl5NNQhgZ8yLi9s-15">
          <mxGeometry relative="1" as="geometry">
            <Array as="points">
              <mxPoint x="830" y="410" />
              <mxPoint x="830" y="570" />
            </Array>
          </mxGeometry>
        </mxCell>
        <mxCell id="HRh51hl5NNQhgZ8yLi9s-21" value="&lt;font style=&quot;font-size: 10px;&quot;&gt;Criar conta&lt;/font&gt;" style="rounded=1;whiteSpace=wrap;html=1;fillColor=#fff2cc;gradientColor=#FFE599;strokeColor=#d6b656;" vertex="1" parent="1">
          <mxGeometry x="720" y="385" width="95" height="50" as="geometry" />
        </mxCell>
        <mxCell id="HRh51hl5NNQhgZ8yLi9s-25" value="" style="ellipse;whiteSpace=wrap;html=1;aspect=fixed;" vertex="1" parent="1">
          <mxGeometry x="563" y="963" width="54" height="54" as="geometry" />
        </mxCell>
        <mxCell id="HRh51hl5NNQhgZ8yLi9s-26" value="&lt;b&gt;act&lt;/b&gt;Login" style="shape=umlFrame;whiteSpace=wrap;html=1;pointerEvents=0;fillColor=default;strokeColor=default;perimeterSpacing=0;strokeWidth=1;gradientColor=none;swimlaneFillColor=none;width=120;height=30;align=left;" vertex="1" parent="1">
          <mxGeometry x="236" y="740" width="784" height="350" as="geometry" />
        </mxCell>
        <mxCell id="HRh51hl5NNQhgZ8yLi9s-27" style="edgeStyle=orthogonalEdgeStyle;rounded=0;orthogonalLoop=1;jettySize=auto;html=1;entryX=0;entryY=0.5;entryDx=0;entryDy=0;" edge="1" parent="1" source="HRh51hl5NNQhgZ8yLi9s-28" target="HRh51hl5NNQhgZ8yLi9s-30">
          <mxGeometry relative="1" as="geometry" />
        </mxCell>
        <mxCell id="HRh51hl5NNQhgZ8yLi9s-28" value="" style="ellipse;whiteSpace=wrap;html=1;aspect=fixed;fillColor=#f5f5f5;gradientColor=#000000;strokeColor=#666666;" vertex="1" parent="1">
          <mxGeometry x="270" y="810" width="40" height="40" as="geometry" />
        </mxCell>
        <mxCell id="HRh51hl5NNQhgZ8yLi9s-29" style="edgeStyle=orthogonalEdgeStyle;rounded=0;orthogonalLoop=1;jettySize=auto;html=1;entryX=0;entryY=0.5;entryDx=0;entryDy=0;" edge="1" parent="1" source="HRh51hl5NNQhgZ8yLi9s-30" target="HRh51hl5NNQhgZ8yLi9s-33">
          <mxGeometry relative="1" as="geometry" />
        </mxCell>
        <mxCell id="HRh51hl5NNQhgZ8yLi9s-30" value="&lt;font style=&quot;font-size: 10px;&quot;&gt;Usuário insere dados pessoais&lt;/font&gt;" style="rounded=1;whiteSpace=wrap;html=1;fillColor=#fff2cc;gradientColor=#FFE599;strokeColor=#d6b656;" vertex="1" parent="1">
          <mxGeometry x="380" y="805" width="95" height="50" as="geometry" />
        </mxCell>
        <mxCell id="HRh51hl5NNQhgZ8yLi9s-31" style="edgeStyle=orthogonalEdgeStyle;rounded=0;orthogonalLoop=1;jettySize=auto;html=1;entryX=0.5;entryY=0;entryDx=0;entryDy=0;" edge="1" parent="1" source="HRh51hl5NNQhgZ8yLi9s-33" target="HRh51hl5NNQhgZ8yLi9s-25">
          <mxGeometry relative="1" as="geometry" />
        </mxCell>
        <mxCell id="HRh51hl5NNQhgZ8yLi9s-32" style="edgeStyle=orthogonalEdgeStyle;rounded=0;orthogonalLoop=1;jettySize=auto;html=1;entryX=0;entryY=0.5;entryDx=0;entryDy=0;" edge="1" parent="1" source="HRh51hl5NNQhgZ8yLi9s-33">
          <mxGeometry relative="1" as="geometry">
            <mxPoint x="720" y="830" as="targetPoint" />
          </mxGeometry>
        </mxCell>
        <mxCell id="HRh51hl5NNQhgZ8yLi9s-33" value="" style="rhombus;whiteSpace=wrap;html=1;fillColor=#fff2cc;gradientColor=#FFE599;strokeColor=#d6b656;" vertex="1" parent="1">
          <mxGeometry x="563" y="815" width="54" height="30" as="geometry" />
        </mxCell>
        <mxCell id="HRh51hl5NNQhgZ8yLi9s-34" value="&lt;font style=&quot;font-size: 10px;&quot;&gt;E-mail registrado?&lt;/font&gt;" style="text;html=1;align=center;verticalAlign=middle;resizable=0;points=[];autosize=1;strokeColor=none;fillColor=none;" vertex="1" parent="1">
          <mxGeometry x="540" y="785" width="100" height="30" as="geometry" />
        </mxCell>
        <mxCell id="HRh51hl5NNQhgZ8yLi9s-35" value="&lt;font style=&quot;font-size: 10px;&quot;&gt;Não&lt;/font&gt;" style="text;html=1;align=center;verticalAlign=middle;resizable=0;points=[];autosize=1;strokeColor=none;fillColor=none;" vertex="1" parent="1">
          <mxGeometry x="540" y="890" width="40" height="30" as="geometry" />
        </mxCell>
        <mxCell id="HRh51hl5NNQhgZ8yLi9s-36" value="" style="ellipse;whiteSpace=wrap;html=1;aspect=fixed;fillColor=#f5f5f5;gradientColor=#000000;strokeColor=#666666;" vertex="1" parent="1">
          <mxGeometry x="570" y="970" width="40" height="40" as="geometry" />
        </mxCell>
        <mxCell id="HRh51hl5NNQhgZ8yLi9s-37" value="&lt;font style=&quot;font-size: 10px;&quot;&gt;Sim&lt;/font&gt;" style="text;html=1;align=center;verticalAlign=middle;resizable=0;points=[];autosize=1;strokeColor=none;fillColor=none;" vertex="1" parent="1">
          <mxGeometry x="645" y="800" width="40" height="30" as="geometry" />
        </mxCell>
        <mxCell id="HRh51hl5NNQhgZ8yLi9s-42" style="edgeStyle=orthogonalEdgeStyle;rounded=0;orthogonalLoop=1;jettySize=auto;html=1;entryX=1;entryY=0.5;entryDx=0;entryDy=0;" edge="1" parent="1" source="HRh51hl5NNQhgZ8yLi9s-40" target="HRh51hl5NNQhgZ8yLi9s-25">
          <mxGeometry relative="1" as="geometry">
            <Array as="points">
              <mxPoint x="747" y="990" />
            </Array>
          </mxGeometry>
        </mxCell>
        <mxCell id="HRh51hl5NNQhgZ8yLi9s-45" style="edgeStyle=orthogonalEdgeStyle;rounded=0;orthogonalLoop=1;jettySize=auto;html=1;entryX=0;entryY=0.5;entryDx=0;entryDy=0;" edge="1" parent="1" source="HRh51hl5NNQhgZ8yLi9s-40" target="HRh51hl5NNQhgZ8yLi9s-44">
          <mxGeometry relative="1" as="geometry" />
        </mxCell>
        <mxCell id="HRh51hl5NNQhgZ8yLi9s-40" value="" style="rhombus;whiteSpace=wrap;html=1;fillColor=#fff2cc;gradientColor=#FFE599;strokeColor=#d6b656;" vertex="1" parent="1">
          <mxGeometry x="720" y="815" width="54" height="30" as="geometry" />
        </mxCell>
        <mxCell id="HRh51hl5NNQhgZ8yLi9s-41" value="&lt;font style=&quot;font-size: 10px;&quot;&gt;Senha condiz?&lt;/font&gt;" style="text;html=1;align=center;verticalAlign=middle;resizable=0;points=[];autosize=1;strokeColor=none;fillColor=none;" vertex="1" parent="1">
          <mxGeometry x="702" y="785" width="90" height="30" as="geometry" />
        </mxCell>
        <mxCell id="HRh51hl5NNQhgZ8yLi9s-43" value="&lt;font style=&quot;font-size: 10px;&quot;&gt;Não&lt;/font&gt;" style="text;html=1;align=center;verticalAlign=middle;resizable=0;points=[];autosize=1;strokeColor=none;fillColor=none;" vertex="1" parent="1">
          <mxGeometry x="702" y="890" width="40" height="30" as="geometry" />
        </mxCell>
        <mxCell id="HRh51hl5NNQhgZ8yLi9s-47" style="edgeStyle=orthogonalEdgeStyle;rounded=0;orthogonalLoop=1;jettySize=auto;html=1;entryX=0.5;entryY=1;entryDx=0;entryDy=0;" edge="1" parent="1" source="HRh51hl5NNQhgZ8yLi9s-44" target="HRh51hl5NNQhgZ8yLi9s-25">
          <mxGeometry relative="1" as="geometry">
            <Array as="points">
              <mxPoint x="937" y="1037" />
              <mxPoint x="590" y="1037" />
            </Array>
          </mxGeometry>
        </mxCell>
        <mxCell id="HRh51hl5NNQhgZ8yLi9s-44" value="&lt;span style=&quot;font-size: 10px;&quot;&gt;Acesso permitido&lt;/span&gt;" style="rounded=1;whiteSpace=wrap;html=1;fillColor=#fff2cc;gradientColor=#FFE599;strokeColor=#d6b656;" vertex="1" parent="1">
          <mxGeometry x="890" y="805" width="95" height="50" as="geometry" />
        </mxCell>
        <mxCell id="HRh51hl5NNQhgZ8yLi9s-46" value="&lt;font style=&quot;font-size: 10px;&quot;&gt;Sim&lt;/font&gt;" style="text;html=1;align=center;verticalAlign=middle;resizable=0;points=[];autosize=1;strokeColor=none;fillColor=none;" vertex="1" parent="1">
          <mxGeometry x="810" y="800" width="40" height="30" as="geometry" />
        </mxCell>
        <mxCell id="HRh51hl5NNQhgZ8yLi9s-48" value="" style="ellipse;whiteSpace=wrap;html=1;aspect=fixed;" vertex="1" parent="1">
          <mxGeometry x="586" y="1368" width="54" height="54" as="geometry" />
        </mxCell>
        <mxCell id="HRh51hl5NNQhgZ8yLi9s-49" value="&lt;b&gt;act&lt;/b&gt;Envio de OC" style="shape=umlFrame;whiteSpace=wrap;html=1;pointerEvents=0;fillColor=default;strokeColor=default;perimeterSpacing=0;strokeWidth=1;gradientColor=none;swimlaneFillColor=none;width=120;height=30;align=left;" vertex="1" parent="1">
          <mxGeometry x="228" y="1169" width="922" height="431" as="geometry" />
        </mxCell>
        <mxCell id="HRh51hl5NNQhgZ8yLi9s-63" style="edgeStyle=orthogonalEdgeStyle;rounded=0;orthogonalLoop=1;jettySize=auto;html=1;entryX=0;entryY=0.5;entryDx=0;entryDy=0;" edge="1" parent="1" source="HRh51hl5NNQhgZ8yLi9s-51" target="HRh51hl5NNQhgZ8yLi9s-56">
          <mxGeometry relative="1" as="geometry" />
        </mxCell>
        <mxCell id="HRh51hl5NNQhgZ8yLi9s-51" value="" style="ellipse;whiteSpace=wrap;html=1;aspect=fixed;fillColor=#f5f5f5;gradientColor=#000000;strokeColor=#666666;" vertex="1" parent="1">
          <mxGeometry x="262" y="1239" width="40" height="40" as="geometry" />
        </mxCell>
        <mxCell id="HRh51hl5NNQhgZ8yLi9s-77" style="edgeStyle=orthogonalEdgeStyle;rounded=0;orthogonalLoop=1;jettySize=auto;html=1;entryX=0.5;entryY=0;entryDx=0;entryDy=0;" edge="1" parent="1" source="HRh51hl5NNQhgZ8yLi9s-53" target="HRh51hl5NNQhgZ8yLi9s-75">
          <mxGeometry relative="1" as="geometry" />
        </mxCell>
        <mxCell id="HRh51hl5NNQhgZ8yLi9s-53" value="&lt;font style=&quot;font-size: 10px;&quot;&gt;Consultar senha&lt;/font&gt;" style="rounded=1;whiteSpace=wrap;html=1;fillColor=#fff2cc;gradientColor=#FFE599;strokeColor=#d6b656;" vertex="1" parent="1">
          <mxGeometry x="925" y="1234" width="95" height="50" as="geometry" />
        </mxCell>
        <mxCell id="HRh51hl5NNQhgZ8yLi9s-66" style="edgeStyle=orthogonalEdgeStyle;rounded=0;orthogonalLoop=1;jettySize=auto;html=1;entryX=0;entryY=0.5;entryDx=0;entryDy=0;" edge="1" parent="1" source="HRh51hl5NNQhgZ8yLi9s-56" target="HRh51hl5NNQhgZ8yLi9s-62">
          <mxGeometry relative="1" as="geometry" />
        </mxCell>
        <mxCell id="HRh51hl5NNQhgZ8yLi9s-82" style="edgeStyle=orthogonalEdgeStyle;rounded=0;orthogonalLoop=1;jettySize=auto;html=1;entryX=0;entryY=0.5;entryDx=0;entryDy=0;" edge="1" parent="1" source="HRh51hl5NNQhgZ8yLi9s-56" target="HRh51hl5NNQhgZ8yLi9s-48">
          <mxGeometry relative="1" as="geometry">
            <Array as="points">
              <mxPoint x="414" y="1395" />
            </Array>
          </mxGeometry>
        </mxCell>
        <mxCell id="HRh51hl5NNQhgZ8yLi9s-56" value="" style="rhombus;whiteSpace=wrap;html=1;fillColor=#fff2cc;gradientColor=#FFE599;strokeColor=#d6b656;" vertex="1" parent="1">
          <mxGeometry x="387" y="1244" width="54" height="30" as="geometry" />
        </mxCell>
        <mxCell id="HRh51hl5NNQhgZ8yLi9s-57" value="&lt;font style=&quot;font-size: 10px;&quot;&gt;Saldo suficiente?&lt;/font&gt;" style="text;html=1;align=center;verticalAlign=middle;resizable=0;points=[];autosize=1;strokeColor=none;fillColor=none;" vertex="1" parent="1">
          <mxGeometry x="364" y="1214" width="100" height="30" as="geometry" />
        </mxCell>
        <mxCell id="HRh51hl5NNQhgZ8yLi9s-59" value="" style="ellipse;whiteSpace=wrap;html=1;aspect=fixed;fillColor=#f5f5f5;gradientColor=#000000;strokeColor=#666666;" vertex="1" parent="1">
          <mxGeometry x="593" y="1375" width="40" height="40" as="geometry" />
        </mxCell>
        <mxCell id="HRh51hl5NNQhgZ8yLi9s-70" style="edgeStyle=orthogonalEdgeStyle;rounded=0;orthogonalLoop=1;jettySize=auto;html=1;entryX=0;entryY=0.5;entryDx=0;entryDy=0;" edge="1" parent="1" source="HRh51hl5NNQhgZ8yLi9s-62" target="HRh51hl5NNQhgZ8yLi9s-68">
          <mxGeometry relative="1" as="geometry" />
        </mxCell>
        <mxCell id="HRh51hl5NNQhgZ8yLi9s-62" value="&lt;font style=&quot;font-size: 10px;&quot;&gt;Consultar e-mail&lt;/font&gt;" style="rounded=1;whiteSpace=wrap;html=1;fillColor=#fff2cc;gradientColor=#FFE599;strokeColor=#d6b656;" vertex="1" parent="1">
          <mxGeometry x="563" y="1234" width="95" height="50" as="geometry" />
        </mxCell>
        <mxCell id="HRh51hl5NNQhgZ8yLi9s-65" value="&lt;font style=&quot;font-size: 10px;&quot;&gt;Não&lt;/font&gt;" style="text;html=1;align=center;verticalAlign=middle;resizable=0;points=[];autosize=1;strokeColor=none;fillColor=none;" vertex="1" parent="1">
          <mxGeometry x="364" y="1320" width="40" height="30" as="geometry" />
        </mxCell>
        <mxCell id="HRh51hl5NNQhgZ8yLi9s-67" value="&lt;font style=&quot;font-size: 10px;&quot;&gt;Sim&lt;/font&gt;" style="text;html=1;align=center;verticalAlign=middle;resizable=0;points=[];autosize=1;strokeColor=none;fillColor=none;" vertex="1" parent="1">
          <mxGeometry x="475" y="1230" width="40" height="30" as="geometry" />
        </mxCell>
        <mxCell id="HRh51hl5NNQhgZ8yLi9s-73" style="edgeStyle=orthogonalEdgeStyle;rounded=0;orthogonalLoop=1;jettySize=auto;html=1;entryX=0;entryY=0.5;entryDx=0;entryDy=0;" edge="1" parent="1" source="HRh51hl5NNQhgZ8yLi9s-68" target="HRh51hl5NNQhgZ8yLi9s-53">
          <mxGeometry relative="1" as="geometry" />
        </mxCell>
        <mxCell id="HRh51hl5NNQhgZ8yLi9s-83" style="edgeStyle=orthogonalEdgeStyle;rounded=0;orthogonalLoop=1;jettySize=auto;html=1;entryX=0.5;entryY=0;entryDx=0;entryDy=0;" edge="1" parent="1" source="HRh51hl5NNQhgZ8yLi9s-68" target="HRh51hl5NNQhgZ8yLi9s-48">
          <mxGeometry relative="1" as="geometry">
            <Array as="points">
              <mxPoint x="780" y="1330" />
              <mxPoint x="613" y="1330" />
            </Array>
          </mxGeometry>
        </mxCell>
        <mxCell id="HRh51hl5NNQhgZ8yLi9s-68" value="" style="rhombus;whiteSpace=wrap;html=1;fillColor=#fff2cc;gradientColor=#FFE599;strokeColor=#d6b656;" vertex="1" parent="1">
          <mxGeometry x="753" y="1244" width="54" height="30" as="geometry" />
        </mxCell>
        <mxCell id="HRh51hl5NNQhgZ8yLi9s-69" value="&lt;font style=&quot;font-size: 10px;&quot;&gt;E-mail correto?&lt;/font&gt;" style="text;html=1;align=center;verticalAlign=middle;resizable=0;points=[];autosize=1;strokeColor=none;fillColor=none;" vertex="1" parent="1">
          <mxGeometry x="735" y="1214" width="90" height="30" as="geometry" />
        </mxCell>
        <mxCell id="HRh51hl5NNQhgZ8yLi9s-74" value="&lt;font style=&quot;font-size: 10px;&quot;&gt;Sim&lt;/font&gt;" style="text;html=1;align=center;verticalAlign=middle;resizable=0;points=[];autosize=1;strokeColor=none;fillColor=none;" vertex="1" parent="1">
          <mxGeometry x="850" y="1230" width="40" height="30" as="geometry" />
        </mxCell>
        <mxCell id="HRh51hl5NNQhgZ8yLi9s-81" style="edgeStyle=orthogonalEdgeStyle;rounded=0;orthogonalLoop=1;jettySize=auto;html=1;entryX=0.5;entryY=0;entryDx=0;entryDy=0;" edge="1" parent="1" source="HRh51hl5NNQhgZ8yLi9s-75" target="HRh51hl5NNQhgZ8yLi9s-78">
          <mxGeometry relative="1" as="geometry" />
        </mxCell>
        <mxCell id="HRh51hl5NNQhgZ8yLi9s-84" style="edgeStyle=orthogonalEdgeStyle;rounded=0;orthogonalLoop=1;jettySize=auto;html=1;entryX=1;entryY=0.5;entryDx=0;entryDy=0;" edge="1" parent="1" source="HRh51hl5NNQhgZ8yLi9s-75" target="HRh51hl5NNQhgZ8yLi9s-48">
          <mxGeometry relative="1" as="geometry" />
        </mxCell>
        <mxCell id="HRh51hl5NNQhgZ8yLi9s-75" value="" style="rhombus;whiteSpace=wrap;html=1;fillColor=#fff2cc;gradientColor=#FFE599;strokeColor=#d6b656;" vertex="1" parent="1">
          <mxGeometry x="945.5" y="1380" width="54" height="30" as="geometry" />
        </mxCell>
        <mxCell id="HRh51hl5NNQhgZ8yLi9s-76" value="&lt;font style=&quot;font-size: 10px;&quot;&gt;Senha correta?&lt;/font&gt;" style="text;html=1;align=center;verticalAlign=middle;resizable=0;points=[];autosize=1;strokeColor=none;fillColor=none;" vertex="1" parent="1">
          <mxGeometry x="999.5" y="1380" width="90" height="30" as="geometry" />
        </mxCell>
        <mxCell id="HRh51hl5NNQhgZ8yLi9s-87" style="edgeStyle=orthogonalEdgeStyle;rounded=0;orthogonalLoop=1;jettySize=auto;html=1;entryX=0.5;entryY=1;entryDx=0;entryDy=0;" edge="1" parent="1" source="HRh51hl5NNQhgZ8yLi9s-78" target="HRh51hl5NNQhgZ8yLi9s-48">
          <mxGeometry relative="1" as="geometry" />
        </mxCell>
        <mxCell id="HRh51hl5NNQhgZ8yLi9s-78" value="&lt;font style=&quot;font-size: 10px;&quot;&gt;Enviar OC&lt;/font&gt;" style="rounded=1;whiteSpace=wrap;html=1;fillColor=#fff2cc;gradientColor=#FFE599;strokeColor=#d6b656;" vertex="1" parent="1">
          <mxGeometry x="925" y="1520" width="95" height="50" as="geometry" />
        </mxCell>
        <mxCell id="HRh51hl5NNQhgZ8yLi9s-80" value="&lt;font style=&quot;font-size: 10px;&quot;&gt;Sim&lt;/font&gt;" style="text;html=1;align=center;verticalAlign=middle;resizable=0;points=[];autosize=1;strokeColor=none;fillColor=none;" vertex="1" parent="1">
          <mxGeometry x="990" y="1450" width="40" height="30" as="geometry" />
        </mxCell>
        <mxCell id="HRh51hl5NNQhgZ8yLi9s-85" value="&lt;font style=&quot;font-size: 10px;&quot;&gt;Não&lt;/font&gt;" style="text;html=1;align=center;verticalAlign=middle;resizable=0;points=[];autosize=1;strokeColor=none;fillColor=none;" vertex="1" parent="1">
          <mxGeometry x="680" y="1300" width="40" height="30" as="geometry" />
        </mxCell>
        <mxCell id="HRh51hl5NNQhgZ8yLi9s-86" value="&lt;font style=&quot;font-size: 10px;&quot;&gt;Não&lt;/font&gt;" style="text;html=1;align=center;verticalAlign=middle;resizable=0;points=[];autosize=1;strokeColor=none;fillColor=none;" vertex="1" parent="1">
          <mxGeometry x="810" y="1360" width="40" height="30" as="geometry" />
        </mxCell>
        <mxCell id="HRh51hl5NNQhgZ8yLi9s-88" value="" style="ellipse;whiteSpace=wrap;html=1;aspect=fixed;" vertex="1" parent="1">
          <mxGeometry x="870" y="1898" width="54" height="54" as="geometry" />
        </mxCell>
        <mxCell id="HRh51hl5NNQhgZ8yLi9s-89" value="&lt;b&gt;act&lt;/b&gt;Modificar OC" style="shape=umlFrame;whiteSpace=wrap;html=1;pointerEvents=0;fillColor=default;strokeColor=default;perimeterSpacing=0;strokeWidth=1;gradientColor=none;swimlaneFillColor=none;width=120;height=30;align=left;" vertex="1" parent="1">
          <mxGeometry x="228" y="1710" width="1052" height="431" as="geometry" />
        </mxCell>
        <mxCell id="HRh51hl5NNQhgZ8yLi9s-90" style="edgeStyle=orthogonalEdgeStyle;rounded=0;orthogonalLoop=1;jettySize=auto;html=1;entryX=0;entryY=0.5;entryDx=0;entryDy=0;" edge="1" parent="1" source="HRh51hl5NNQhgZ8yLi9s-91">
          <mxGeometry relative="1" as="geometry">
            <mxPoint x="387" y="1800" as="targetPoint" />
          </mxGeometry>
        </mxCell>
        <mxCell id="HRh51hl5NNQhgZ8yLi9s-91" value="" style="ellipse;whiteSpace=wrap;html=1;aspect=fixed;fillColor=#f5f5f5;gradientColor=#000000;strokeColor=#666666;" vertex="1" parent="1">
          <mxGeometry x="262" y="1780" width="40" height="40" as="geometry" />
        </mxCell>
        <mxCell id="HRh51hl5NNQhgZ8yLi9s-118" style="edgeStyle=orthogonalEdgeStyle;rounded=0;orthogonalLoop=1;jettySize=auto;html=1;entryX=0;entryY=0.5;entryDx=0;entryDy=0;" edge="1" parent="1" source="HRh51hl5NNQhgZ8yLi9s-93" target="HRh51hl5NNQhgZ8yLi9s-110">
          <mxGeometry relative="1" as="geometry" />
        </mxCell>
        <mxCell id="HRh51hl5NNQhgZ8yLi9s-93" value="&lt;font style=&quot;font-size: 10px;&quot;&gt;Consultar senha&lt;/font&gt;" style="rounded=1;whiteSpace=wrap;html=1;fillColor=#fff2cc;gradientColor=#FFE599;strokeColor=#d6b656;" vertex="1" parent="1">
          <mxGeometry x="702" y="1774" width="95" height="50" as="geometry" />
        </mxCell>
        <mxCell id="HRh51hl5NNQhgZ8yLi9s-98" value="" style="ellipse;whiteSpace=wrap;html=1;aspect=fixed;fillColor=#f5f5f5;gradientColor=#000000;strokeColor=#666666;" vertex="1" parent="1">
          <mxGeometry x="877" y="1905" width="40" height="40" as="geometry" />
        </mxCell>
        <mxCell id="HRh51hl5NNQhgZ8yLi9s-99" style="edgeStyle=orthogonalEdgeStyle;rounded=0;orthogonalLoop=1;jettySize=auto;html=1;entryX=0;entryY=0.5;entryDx=0;entryDy=0;" edge="1" parent="1" source="HRh51hl5NNQhgZ8yLi9s-100" target="HRh51hl5NNQhgZ8yLi9s-105">
          <mxGeometry relative="1" as="geometry" />
        </mxCell>
        <mxCell id="HRh51hl5NNQhgZ8yLi9s-100" value="&lt;font style=&quot;font-size: 10px;&quot;&gt;Consultar e-mail&lt;/font&gt;" style="rounded=1;whiteSpace=wrap;html=1;fillColor=#fff2cc;gradientColor=#FFE599;strokeColor=#d6b656;" vertex="1" parent="1">
          <mxGeometry x="387" y="1775" width="95" height="50" as="geometry" />
        </mxCell>
        <mxCell id="HRh51hl5NNQhgZ8yLi9s-103" style="edgeStyle=orthogonalEdgeStyle;rounded=0;orthogonalLoop=1;jettySize=auto;html=1;entryX=0;entryY=0.5;entryDx=0;entryDy=0;" edge="1" parent="1" source="HRh51hl5NNQhgZ8yLi9s-105" target="HRh51hl5NNQhgZ8yLi9s-93">
          <mxGeometry relative="1" as="geometry" />
        </mxCell>
        <mxCell id="HRh51hl5NNQhgZ8yLi9s-128" style="edgeStyle=orthogonalEdgeStyle;rounded=0;orthogonalLoop=1;jettySize=auto;html=1;entryX=0;entryY=0.5;entryDx=0;entryDy=0;" edge="1" parent="1" source="HRh51hl5NNQhgZ8yLi9s-105" target="HRh51hl5NNQhgZ8yLi9s-88">
          <mxGeometry relative="1" as="geometry">
            <Array as="points">
              <mxPoint x="568" y="1926" />
            </Array>
          </mxGeometry>
        </mxCell>
        <mxCell id="HRh51hl5NNQhgZ8yLi9s-105" value="" style="rhombus;whiteSpace=wrap;html=1;fillColor=#fff2cc;gradientColor=#FFE599;strokeColor=#d6b656;" vertex="1" parent="1">
          <mxGeometry x="541" y="1784" width="54" height="30" as="geometry" />
        </mxCell>
        <mxCell id="HRh51hl5NNQhgZ8yLi9s-106" value="&lt;font style=&quot;font-size: 10px;&quot;&gt;E-mail correto?&lt;/font&gt;" style="text;html=1;align=center;verticalAlign=middle;resizable=0;points=[];autosize=1;strokeColor=none;fillColor=none;" vertex="1" parent="1">
          <mxGeometry x="523" y="1754" width="90" height="30" as="geometry" />
        </mxCell>
        <mxCell id="HRh51hl5NNQhgZ8yLi9s-119" style="edgeStyle=orthogonalEdgeStyle;rounded=0;orthogonalLoop=1;jettySize=auto;html=1;entryX=0;entryY=0.5;entryDx=0;entryDy=0;" edge="1" parent="1" source="HRh51hl5NNQhgZ8yLi9s-110" target="HRh51hl5NNQhgZ8yLi9s-113">
          <mxGeometry relative="1" as="geometry" />
        </mxCell>
        <mxCell id="HRh51hl5NNQhgZ8yLi9s-127" style="edgeStyle=orthogonalEdgeStyle;rounded=0;orthogonalLoop=1;jettySize=auto;html=1;entryX=0.5;entryY=0;entryDx=0;entryDy=0;" edge="1" parent="1" source="HRh51hl5NNQhgZ8yLi9s-110" target="HRh51hl5NNQhgZ8yLi9s-88">
          <mxGeometry relative="1" as="geometry">
            <Array as="points">
              <mxPoint x="897" y="1880" />
              <mxPoint x="897" y="1880" />
            </Array>
          </mxGeometry>
        </mxCell>
        <mxCell id="HRh51hl5NNQhgZ8yLi9s-110" value="" style="rhombus;whiteSpace=wrap;html=1;fillColor=#fff2cc;gradientColor=#FFE599;strokeColor=#d6b656;" vertex="1" parent="1">
          <mxGeometry x="870" y="1785" width="54" height="30" as="geometry" />
        </mxCell>
        <mxCell id="HRh51hl5NNQhgZ8yLi9s-111" value="&lt;font style=&quot;font-size: 10px;&quot;&gt;Senha correta?&lt;/font&gt;" style="text;html=1;align=center;verticalAlign=middle;resizable=0;points=[];autosize=1;strokeColor=none;fillColor=none;" vertex="1" parent="1">
          <mxGeometry x="852" y="1755" width="90" height="30" as="geometry" />
        </mxCell>
        <mxCell id="HRh51hl5NNQhgZ8yLi9s-122" style="edgeStyle=orthogonalEdgeStyle;rounded=0;orthogonalLoop=1;jettySize=auto;html=1;entryX=0.5;entryY=0;entryDx=0;entryDy=0;" edge="1" parent="1" source="HRh51hl5NNQhgZ8yLi9s-113" target="HRh51hl5NNQhgZ8yLi9s-120">
          <mxGeometry relative="1" as="geometry" />
        </mxCell>
        <mxCell id="HRh51hl5NNQhgZ8yLi9s-113" value="&lt;font style=&quot;font-size: 10px;&quot;&gt;Consultar OC&lt;/font&gt;" style="rounded=1;whiteSpace=wrap;html=1;fillColor=#fff2cc;gradientColor=#FFE599;strokeColor=#d6b656;" vertex="1" parent="1">
          <mxGeometry x="1017.5" y="1774" width="95" height="50" as="geometry" />
        </mxCell>
        <mxCell id="HRh51hl5NNQhgZ8yLi9s-114" value="&lt;font style=&quot;font-size: 10px;&quot;&gt;Sim&lt;/font&gt;" style="text;html=1;align=center;verticalAlign=middle;resizable=0;points=[];autosize=1;strokeColor=none;fillColor=none;" vertex="1" parent="1">
          <mxGeometry x="952.5" y="1770" width="40" height="30" as="geometry" />
        </mxCell>
        <mxCell id="HRh51hl5NNQhgZ8yLi9s-117" value="&lt;font style=&quot;font-size: 10px;&quot;&gt;Sim&lt;/font&gt;" style="text;html=1;align=center;verticalAlign=middle;resizable=0;points=[];autosize=1;strokeColor=none;fillColor=none;" vertex="1" parent="1">
          <mxGeometry x="633" y="1770" width="40" height="30" as="geometry" />
        </mxCell>
        <mxCell id="HRh51hl5NNQhgZ8yLi9s-126" style="edgeStyle=orthogonalEdgeStyle;rounded=0;orthogonalLoop=1;jettySize=auto;html=1;entryX=1;entryY=0.5;entryDx=0;entryDy=0;" edge="1" parent="1" source="HRh51hl5NNQhgZ8yLi9s-120" target="HRh51hl5NNQhgZ8yLi9s-88">
          <mxGeometry relative="1" as="geometry" />
        </mxCell>
        <mxCell id="HRh51hl5NNQhgZ8yLi9s-261" style="edgeStyle=orthogonalEdgeStyle;rounded=0;orthogonalLoop=1;jettySize=auto;html=1;entryX=0.5;entryY=0;entryDx=0;entryDy=0;" edge="1" parent="1" source="HRh51hl5NNQhgZ8yLi9s-120" target="HRh51hl5NNQhgZ8yLi9s-258">
          <mxGeometry relative="1" as="geometry" />
        </mxCell>
        <mxCell id="HRh51hl5NNQhgZ8yLi9s-120" value="" style="rhombus;whiteSpace=wrap;html=1;fillColor=#fff2cc;gradientColor=#FFE599;strokeColor=#d6b656;" vertex="1" parent="1">
          <mxGeometry x="1038" y="1910" width="54" height="30" as="geometry" />
        </mxCell>
        <mxCell id="HRh51hl5NNQhgZ8yLi9s-121" value="&lt;font style=&quot;font-size: 10px;&quot;&gt;OC existe?&lt;/font&gt;" style="text;html=1;align=center;verticalAlign=middle;resizable=0;points=[];autosize=1;strokeColor=none;fillColor=none;" vertex="1" parent="1">
          <mxGeometry x="1092" y="1910" width="70" height="30" as="geometry" />
        </mxCell>
        <mxCell id="HRh51hl5NNQhgZ8yLi9s-264" style="edgeStyle=orthogonalEdgeStyle;rounded=0;orthogonalLoop=1;jettySize=auto;html=1;entryX=0.5;entryY=1;entryDx=0;entryDy=0;" edge="1" parent="1" source="HRh51hl5NNQhgZ8yLi9s-123" target="HRh51hl5NNQhgZ8yLi9s-88">
          <mxGeometry relative="1" as="geometry" />
        </mxCell>
        <mxCell id="HRh51hl5NNQhgZ8yLi9s-123" value="&lt;font style=&quot;font-size: 10px;&quot;&gt;Modificar OC&lt;/font&gt;" style="rounded=1;whiteSpace=wrap;html=1;fillColor=#fff2cc;gradientColor=#FFE599;strokeColor=#d6b656;" vertex="1" parent="1">
          <mxGeometry x="849.5" y="2050" width="95" height="50" as="geometry" />
        </mxCell>
        <mxCell id="HRh51hl5NNQhgZ8yLi9s-125" value="&lt;font style=&quot;font-size: 10px;&quot;&gt;Sim&lt;/font&gt;" style="text;html=1;align=center;verticalAlign=middle;resizable=0;points=[];autosize=1;strokeColor=none;fillColor=none;" vertex="1" parent="1">
          <mxGeometry x="1072.5" y="1960" width="40" height="30" as="geometry" />
        </mxCell>
        <mxCell id="HRh51hl5NNQhgZ8yLi9s-129" value="&lt;font style=&quot;font-size: 10px;&quot;&gt;Não&lt;/font&gt;" style="text;html=1;align=center;verticalAlign=middle;resizable=0;points=[];autosize=1;strokeColor=none;fillColor=none;" vertex="1" parent="1">
          <mxGeometry x="702" y="1898" width="40" height="30" as="geometry" />
        </mxCell>
        <mxCell id="HRh51hl5NNQhgZ8yLi9s-130" value="&lt;font style=&quot;font-size: 10px;&quot;&gt;Não&lt;/font&gt;" style="text;html=1;align=center;verticalAlign=middle;resizable=0;points=[];autosize=1;strokeColor=none;fillColor=none;" vertex="1" parent="1">
          <mxGeometry x="902" y="1840" width="40" height="30" as="geometry" />
        </mxCell>
        <mxCell id="HRh51hl5NNQhgZ8yLi9s-131" value="&lt;font style=&quot;font-size: 10px;&quot;&gt;Não&lt;/font&gt;" style="text;html=1;align=center;verticalAlign=middle;resizable=0;points=[];autosize=1;strokeColor=none;fillColor=none;" vertex="1" parent="1">
          <mxGeometry x="959.5" y="1890" width="40" height="30" as="geometry" />
        </mxCell>
        <mxCell id="HRh51hl5NNQhgZ8yLi9s-133" value="" style="ellipse;whiteSpace=wrap;html=1;aspect=fixed;" vertex="1" parent="1">
          <mxGeometry x="870" y="2418" width="54" height="54" as="geometry" />
        </mxCell>
        <mxCell id="HRh51hl5NNQhgZ8yLi9s-134" value="&lt;b&gt;act&lt;/b&gt;Cancelar OC" style="shape=umlFrame;whiteSpace=wrap;html=1;pointerEvents=0;fillColor=default;strokeColor=default;perimeterSpacing=0;strokeWidth=1;gradientColor=none;swimlaneFillColor=none;width=120;height=30;align=left;" vertex="1" parent="1">
          <mxGeometry x="228" y="2230" width="1052" height="431" as="geometry" />
        </mxCell>
        <mxCell id="HRh51hl5NNQhgZ8yLi9s-135" style="edgeStyle=orthogonalEdgeStyle;rounded=0;orthogonalLoop=1;jettySize=auto;html=1;entryX=0;entryY=0.5;entryDx=0;entryDy=0;" edge="1" parent="1" source="HRh51hl5NNQhgZ8yLi9s-136">
          <mxGeometry relative="1" as="geometry">
            <mxPoint x="387" y="2320" as="targetPoint" />
          </mxGeometry>
        </mxCell>
        <mxCell id="HRh51hl5NNQhgZ8yLi9s-136" value="" style="ellipse;whiteSpace=wrap;html=1;aspect=fixed;fillColor=#f5f5f5;gradientColor=#000000;strokeColor=#666666;" vertex="1" parent="1">
          <mxGeometry x="262" y="2300" width="40" height="40" as="geometry" />
        </mxCell>
        <mxCell id="HRh51hl5NNQhgZ8yLi9s-137" style="edgeStyle=orthogonalEdgeStyle;rounded=0;orthogonalLoop=1;jettySize=auto;html=1;entryX=0;entryY=0.5;entryDx=0;entryDy=0;" edge="1" parent="1" source="HRh51hl5NNQhgZ8yLi9s-138" target="HRh51hl5NNQhgZ8yLi9s-148">
          <mxGeometry relative="1" as="geometry" />
        </mxCell>
        <mxCell id="HRh51hl5NNQhgZ8yLi9s-138" value="&lt;font style=&quot;font-size: 10px;&quot;&gt;Consultar senha&lt;/font&gt;" style="rounded=1;whiteSpace=wrap;html=1;fillColor=#fff2cc;gradientColor=#FFE599;strokeColor=#d6b656;" vertex="1" parent="1">
          <mxGeometry x="702" y="2294" width="95" height="50" as="geometry" />
        </mxCell>
        <mxCell id="HRh51hl5NNQhgZ8yLi9s-139" value="" style="ellipse;whiteSpace=wrap;html=1;aspect=fixed;fillColor=#f5f5f5;gradientColor=#000000;strokeColor=#666666;" vertex="1" parent="1">
          <mxGeometry x="877" y="2425" width="40" height="40" as="geometry" />
        </mxCell>
        <mxCell id="HRh51hl5NNQhgZ8yLi9s-140" style="edgeStyle=orthogonalEdgeStyle;rounded=0;orthogonalLoop=1;jettySize=auto;html=1;entryX=0;entryY=0.5;entryDx=0;entryDy=0;" edge="1" parent="1" source="HRh51hl5NNQhgZ8yLi9s-141" target="HRh51hl5NNQhgZ8yLi9s-144">
          <mxGeometry relative="1" as="geometry" />
        </mxCell>
        <mxCell id="HRh51hl5NNQhgZ8yLi9s-141" value="&lt;font style=&quot;font-size: 10px;&quot;&gt;Consultar e-mail&lt;/font&gt;" style="rounded=1;whiteSpace=wrap;html=1;fillColor=#fff2cc;gradientColor=#FFE599;strokeColor=#d6b656;" vertex="1" parent="1">
          <mxGeometry x="387" y="2295" width="95" height="50" as="geometry" />
        </mxCell>
        <mxCell id="HRh51hl5NNQhgZ8yLi9s-142" style="edgeStyle=orthogonalEdgeStyle;rounded=0;orthogonalLoop=1;jettySize=auto;html=1;entryX=0;entryY=0.5;entryDx=0;entryDy=0;" edge="1" parent="1" source="HRh51hl5NNQhgZ8yLi9s-144" target="HRh51hl5NNQhgZ8yLi9s-138">
          <mxGeometry relative="1" as="geometry" />
        </mxCell>
        <mxCell id="HRh51hl5NNQhgZ8yLi9s-143" style="edgeStyle=orthogonalEdgeStyle;rounded=0;orthogonalLoop=1;jettySize=auto;html=1;entryX=0;entryY=0.5;entryDx=0;entryDy=0;" edge="1" parent="1" source="HRh51hl5NNQhgZ8yLi9s-144" target="HRh51hl5NNQhgZ8yLi9s-133">
          <mxGeometry relative="1" as="geometry">
            <Array as="points">
              <mxPoint x="568" y="2446" />
            </Array>
          </mxGeometry>
        </mxCell>
        <mxCell id="HRh51hl5NNQhgZ8yLi9s-144" value="" style="rhombus;whiteSpace=wrap;html=1;fillColor=#fff2cc;gradientColor=#FFE599;strokeColor=#d6b656;" vertex="1" parent="1">
          <mxGeometry x="541" y="2304" width="54" height="30" as="geometry" />
        </mxCell>
        <mxCell id="HRh51hl5NNQhgZ8yLi9s-145" value="&lt;font style=&quot;font-size: 10px;&quot;&gt;E-mail correto?&lt;/font&gt;" style="text;html=1;align=center;verticalAlign=middle;resizable=0;points=[];autosize=1;strokeColor=none;fillColor=none;" vertex="1" parent="1">
          <mxGeometry x="523" y="2274" width="90" height="30" as="geometry" />
        </mxCell>
        <mxCell id="HRh51hl5NNQhgZ8yLi9s-146" style="edgeStyle=orthogonalEdgeStyle;rounded=0;orthogonalLoop=1;jettySize=auto;html=1;entryX=0;entryY=0.5;entryDx=0;entryDy=0;" edge="1" parent="1" source="HRh51hl5NNQhgZ8yLi9s-148" target="HRh51hl5NNQhgZ8yLi9s-151">
          <mxGeometry relative="1" as="geometry" />
        </mxCell>
        <mxCell id="HRh51hl5NNQhgZ8yLi9s-147" style="edgeStyle=orthogonalEdgeStyle;rounded=0;orthogonalLoop=1;jettySize=auto;html=1;entryX=0.5;entryY=0;entryDx=0;entryDy=0;" edge="1" parent="1" source="HRh51hl5NNQhgZ8yLi9s-148" target="HRh51hl5NNQhgZ8yLi9s-133">
          <mxGeometry relative="1" as="geometry">
            <Array as="points">
              <mxPoint x="897" y="2400" />
              <mxPoint x="897" y="2400" />
            </Array>
          </mxGeometry>
        </mxCell>
        <mxCell id="HRh51hl5NNQhgZ8yLi9s-148" value="" style="rhombus;whiteSpace=wrap;html=1;fillColor=#fff2cc;gradientColor=#FFE599;strokeColor=#d6b656;" vertex="1" parent="1">
          <mxGeometry x="870" y="2305" width="54" height="30" as="geometry" />
        </mxCell>
        <mxCell id="HRh51hl5NNQhgZ8yLi9s-149" value="&lt;font style=&quot;font-size: 10px;&quot;&gt;Senha correta?&lt;/font&gt;" style="text;html=1;align=center;verticalAlign=middle;resizable=0;points=[];autosize=1;strokeColor=none;fillColor=none;" vertex="1" parent="1">
          <mxGeometry x="852" y="2275" width="90" height="30" as="geometry" />
        </mxCell>
        <mxCell id="HRh51hl5NNQhgZ8yLi9s-150" style="edgeStyle=orthogonalEdgeStyle;rounded=0;orthogonalLoop=1;jettySize=auto;html=1;entryX=0.5;entryY=0;entryDx=0;entryDy=0;" edge="1" parent="1" source="HRh51hl5NNQhgZ8yLi9s-151" target="HRh51hl5NNQhgZ8yLi9s-156">
          <mxGeometry relative="1" as="geometry" />
        </mxCell>
        <mxCell id="HRh51hl5NNQhgZ8yLi9s-151" value="&lt;font style=&quot;font-size: 10px;&quot;&gt;Consultar OC&lt;/font&gt;" style="rounded=1;whiteSpace=wrap;html=1;fillColor=#fff2cc;gradientColor=#FFE599;strokeColor=#d6b656;" vertex="1" parent="1">
          <mxGeometry x="1017.5" y="2294" width="95" height="50" as="geometry" />
        </mxCell>
        <mxCell id="HRh51hl5NNQhgZ8yLi9s-152" value="&lt;font style=&quot;font-size: 10px;&quot;&gt;Sim&lt;/font&gt;" style="text;html=1;align=center;verticalAlign=middle;resizable=0;points=[];autosize=1;strokeColor=none;fillColor=none;" vertex="1" parent="1">
          <mxGeometry x="952.5" y="2290" width="40" height="30" as="geometry" />
        </mxCell>
        <mxCell id="HRh51hl5NNQhgZ8yLi9s-153" value="&lt;font style=&quot;font-size: 10px;&quot;&gt;Sim&lt;/font&gt;" style="text;html=1;align=center;verticalAlign=middle;resizable=0;points=[];autosize=1;strokeColor=none;fillColor=none;" vertex="1" parent="1">
          <mxGeometry x="633" y="2290" width="40" height="30" as="geometry" />
        </mxCell>
        <mxCell id="HRh51hl5NNQhgZ8yLi9s-154" style="edgeStyle=orthogonalEdgeStyle;rounded=0;orthogonalLoop=1;jettySize=auto;html=1;entryX=0.5;entryY=0;entryDx=0;entryDy=0;" edge="1" parent="1" source="HRh51hl5NNQhgZ8yLi9s-156" target="HRh51hl5NNQhgZ8yLi9s-159">
          <mxGeometry relative="1" as="geometry" />
        </mxCell>
        <mxCell id="HRh51hl5NNQhgZ8yLi9s-155" style="edgeStyle=orthogonalEdgeStyle;rounded=0;orthogonalLoop=1;jettySize=auto;html=1;entryX=1;entryY=0.5;entryDx=0;entryDy=0;" edge="1" parent="1" source="HRh51hl5NNQhgZ8yLi9s-156" target="HRh51hl5NNQhgZ8yLi9s-133">
          <mxGeometry relative="1" as="geometry" />
        </mxCell>
        <mxCell id="HRh51hl5NNQhgZ8yLi9s-156" value="" style="rhombus;whiteSpace=wrap;html=1;fillColor=#fff2cc;gradientColor=#FFE599;strokeColor=#d6b656;" vertex="1" parent="1">
          <mxGeometry x="1038" y="2430" width="54" height="30" as="geometry" />
        </mxCell>
        <mxCell id="HRh51hl5NNQhgZ8yLi9s-157" value="&lt;font style=&quot;font-size: 10px;&quot;&gt;OC existe?&lt;/font&gt;" style="text;html=1;align=center;verticalAlign=middle;resizable=0;points=[];autosize=1;strokeColor=none;fillColor=none;" vertex="1" parent="1">
          <mxGeometry x="1092" y="2430" width="70" height="30" as="geometry" />
        </mxCell>
        <mxCell id="HRh51hl5NNQhgZ8yLi9s-158" style="edgeStyle=orthogonalEdgeStyle;rounded=0;orthogonalLoop=1;jettySize=auto;html=1;entryX=0.5;entryY=1;entryDx=0;entryDy=0;" edge="1" parent="1" source="HRh51hl5NNQhgZ8yLi9s-159" target="HRh51hl5NNQhgZ8yLi9s-133">
          <mxGeometry relative="1" as="geometry" />
        </mxCell>
        <mxCell id="HRh51hl5NNQhgZ8yLi9s-159" value="&lt;font style=&quot;font-size: 10px;&quot;&gt;Cancelar OC&lt;/font&gt;" style="rounded=1;whiteSpace=wrap;html=1;fillColor=#fff2cc;gradientColor=#FFE599;strokeColor=#d6b656;" vertex="1" parent="1">
          <mxGeometry x="1017.5" y="2543" width="95" height="50" as="geometry" />
        </mxCell>
        <mxCell id="HRh51hl5NNQhgZ8yLi9s-160" value="&lt;font style=&quot;font-size: 10px;&quot;&gt;Sim&lt;/font&gt;" style="text;html=1;align=center;verticalAlign=middle;resizable=0;points=[];autosize=1;strokeColor=none;fillColor=none;" vertex="1" parent="1">
          <mxGeometry x="1072.5" y="2488" width="40" height="30" as="geometry" />
        </mxCell>
        <mxCell id="HRh51hl5NNQhgZ8yLi9s-161" value="&lt;font style=&quot;font-size: 10px;&quot;&gt;Não&lt;/font&gt;" style="text;html=1;align=center;verticalAlign=middle;resizable=0;points=[];autosize=1;strokeColor=none;fillColor=none;" vertex="1" parent="1">
          <mxGeometry x="702" y="2418" width="40" height="30" as="geometry" />
        </mxCell>
        <mxCell id="HRh51hl5NNQhgZ8yLi9s-162" value="&lt;font style=&quot;font-size: 10px;&quot;&gt;Não&lt;/font&gt;" style="text;html=1;align=center;verticalAlign=middle;resizable=0;points=[];autosize=1;strokeColor=none;fillColor=none;" vertex="1" parent="1">
          <mxGeometry x="902" y="2360" width="40" height="30" as="geometry" />
        </mxCell>
        <mxCell id="HRh51hl5NNQhgZ8yLi9s-163" value="&lt;font style=&quot;font-size: 10px;&quot;&gt;Não&lt;/font&gt;" style="text;html=1;align=center;verticalAlign=middle;resizable=0;points=[];autosize=1;strokeColor=none;fillColor=none;" vertex="1" parent="1">
          <mxGeometry x="959.5" y="2410" width="40" height="30" as="geometry" />
        </mxCell>
        <mxCell id="HRh51hl5NNQhgZ8yLi9s-164" value="" style="ellipse;whiteSpace=wrap;html=1;aspect=fixed;" vertex="1" parent="1">
          <mxGeometry x="597.5" y="2949" width="54" height="54" as="geometry" />
        </mxCell>
        <mxCell id="HRh51hl5NNQhgZ8yLi9s-165" value="&lt;b&gt;act&lt;/b&gt;Envio de OV" style="shape=umlFrame;whiteSpace=wrap;html=1;pointerEvents=0;fillColor=default;strokeColor=default;perimeterSpacing=0;strokeWidth=1;gradientColor=none;swimlaneFillColor=none;width=120;height=30;align=left;" vertex="1" parent="1">
          <mxGeometry x="228" y="2750" width="842" height="431" as="geometry" />
        </mxCell>
        <mxCell id="HRh51hl5NNQhgZ8yLi9s-166" style="edgeStyle=orthogonalEdgeStyle;rounded=0;orthogonalLoop=1;jettySize=auto;html=1;entryX=0;entryY=0.5;entryDx=0;entryDy=0;" edge="1" parent="1" source="HRh51hl5NNQhgZ8yLi9s-167" target="HRh51hl5NNQhgZ8yLi9s-176">
          <mxGeometry relative="1" as="geometry">
            <mxPoint x="387" y="2840" as="targetPoint" />
          </mxGeometry>
        </mxCell>
        <mxCell id="HRh51hl5NNQhgZ8yLi9s-167" value="" style="ellipse;whiteSpace=wrap;html=1;aspect=fixed;fillColor=#f5f5f5;gradientColor=#000000;strokeColor=#666666;" vertex="1" parent="1">
          <mxGeometry x="262" y="2820" width="40" height="40" as="geometry" />
        </mxCell>
        <mxCell id="HRh51hl5NNQhgZ8yLi9s-168" style="edgeStyle=orthogonalEdgeStyle;rounded=0;orthogonalLoop=1;jettySize=auto;html=1;entryX=0.5;entryY=0;entryDx=0;entryDy=0;" edge="1" parent="1" source="HRh51hl5NNQhgZ8yLi9s-169" target="HRh51hl5NNQhgZ8yLi9s-186">
          <mxGeometry relative="1" as="geometry" />
        </mxCell>
        <mxCell id="HRh51hl5NNQhgZ8yLi9s-169" value="&lt;font style=&quot;font-size: 10px;&quot;&gt;Consultar senha&lt;/font&gt;" style="rounded=1;whiteSpace=wrap;html=1;fillColor=#fff2cc;gradientColor=#FFE599;strokeColor=#d6b656;" vertex="1" parent="1">
          <mxGeometry x="769.5" y="2815" width="95" height="50" as="geometry" />
        </mxCell>
        <mxCell id="HRh51hl5NNQhgZ8yLi9s-174" value="" style="ellipse;whiteSpace=wrap;html=1;aspect=fixed;fillColor=#f5f5f5;gradientColor=#000000;strokeColor=#666666;" vertex="1" parent="1">
          <mxGeometry x="604.5" y="2956" width="40" height="40" as="geometry" />
        </mxCell>
        <mxCell id="HRh51hl5NNQhgZ8yLi9s-175" style="edgeStyle=orthogonalEdgeStyle;rounded=0;orthogonalLoop=1;jettySize=auto;html=1;entryX=0;entryY=0.5;entryDx=0;entryDy=0;" edge="1" parent="1" source="HRh51hl5NNQhgZ8yLi9s-176" target="HRh51hl5NNQhgZ8yLi9s-181">
          <mxGeometry relative="1" as="geometry" />
        </mxCell>
        <mxCell id="HRh51hl5NNQhgZ8yLi9s-176" value="&lt;font style=&quot;font-size: 10px;&quot;&gt;Consultar e-mail&lt;/font&gt;" style="rounded=1;whiteSpace=wrap;html=1;fillColor=#fff2cc;gradientColor=#FFE599;strokeColor=#d6b656;" vertex="1" parent="1">
          <mxGeometry x="414" y="2815" width="95" height="50" as="geometry" />
        </mxCell>
        <mxCell id="HRh51hl5NNQhgZ8yLi9s-179" style="edgeStyle=orthogonalEdgeStyle;rounded=0;orthogonalLoop=1;jettySize=auto;html=1;entryX=0;entryY=0.5;entryDx=0;entryDy=0;" edge="1" parent="1" source="HRh51hl5NNQhgZ8yLi9s-181" target="HRh51hl5NNQhgZ8yLi9s-169">
          <mxGeometry relative="1" as="geometry" />
        </mxCell>
        <mxCell id="HRh51hl5NNQhgZ8yLi9s-255" style="edgeStyle=orthogonalEdgeStyle;rounded=0;orthogonalLoop=1;jettySize=auto;html=1;entryX=0.5;entryY=0;entryDx=0;entryDy=0;" edge="1" parent="1" source="HRh51hl5NNQhgZ8yLi9s-181" target="HRh51hl5NNQhgZ8yLi9s-164">
          <mxGeometry relative="1" as="geometry" />
        </mxCell>
        <mxCell id="HRh51hl5NNQhgZ8yLi9s-181" value="" style="rhombus;whiteSpace=wrap;html=1;fillColor=#fff2cc;gradientColor=#FFE599;strokeColor=#d6b656;" vertex="1" parent="1">
          <mxGeometry x="597.5" y="2825" width="54" height="30" as="geometry" />
        </mxCell>
        <mxCell id="HRh51hl5NNQhgZ8yLi9s-182" value="&lt;font style=&quot;font-size: 10px;&quot;&gt;E-mail correto?&lt;/font&gt;" style="text;html=1;align=center;verticalAlign=middle;resizable=0;points=[];autosize=1;strokeColor=none;fillColor=none;" vertex="1" parent="1">
          <mxGeometry x="579.5" y="2795" width="90" height="30" as="geometry" />
        </mxCell>
        <mxCell id="HRh51hl5NNQhgZ8yLi9s-183" value="&lt;font style=&quot;font-size: 10px;&quot;&gt;Sim&lt;/font&gt;" style="text;html=1;align=center;verticalAlign=middle;resizable=0;points=[];autosize=1;strokeColor=none;fillColor=none;" vertex="1" parent="1">
          <mxGeometry x="694.5" y="2811" width="40" height="30" as="geometry" />
        </mxCell>
        <mxCell id="HRh51hl5NNQhgZ8yLi9s-184" style="edgeStyle=orthogonalEdgeStyle;rounded=0;orthogonalLoop=1;jettySize=auto;html=1;entryX=0.5;entryY=0;entryDx=0;entryDy=0;" edge="1" parent="1" source="HRh51hl5NNQhgZ8yLi9s-186" target="HRh51hl5NNQhgZ8yLi9s-189">
          <mxGeometry relative="1" as="geometry" />
        </mxCell>
        <mxCell id="HRh51hl5NNQhgZ8yLi9s-185" style="edgeStyle=orthogonalEdgeStyle;rounded=0;orthogonalLoop=1;jettySize=auto;html=1;entryX=1;entryY=0.5;entryDx=0;entryDy=0;" edge="1" parent="1" source="HRh51hl5NNQhgZ8yLi9s-186" target="HRh51hl5NNQhgZ8yLi9s-164">
          <mxGeometry relative="1" as="geometry" />
        </mxCell>
        <mxCell id="HRh51hl5NNQhgZ8yLi9s-186" value="" style="rhombus;whiteSpace=wrap;html=1;fillColor=#fff2cc;gradientColor=#FFE599;strokeColor=#d6b656;" vertex="1" parent="1">
          <mxGeometry x="910.5" y="2961" width="54" height="30" as="geometry" />
        </mxCell>
        <mxCell id="HRh51hl5NNQhgZ8yLi9s-187" value="&lt;font style=&quot;font-size: 10px;&quot;&gt;Senha correta?&lt;/font&gt;" style="text;html=1;align=center;verticalAlign=middle;resizable=0;points=[];autosize=1;strokeColor=none;fillColor=none;" vertex="1" parent="1">
          <mxGeometry x="964.5" y="2961" width="90" height="30" as="geometry" />
        </mxCell>
        <mxCell id="HRh51hl5NNQhgZ8yLi9s-188" style="edgeStyle=orthogonalEdgeStyle;rounded=0;orthogonalLoop=1;jettySize=auto;html=1;entryX=0.5;entryY=1;entryDx=0;entryDy=0;" edge="1" parent="1" source="HRh51hl5NNQhgZ8yLi9s-189" target="HRh51hl5NNQhgZ8yLi9s-164">
          <mxGeometry relative="1" as="geometry" />
        </mxCell>
        <mxCell id="HRh51hl5NNQhgZ8yLi9s-189" value="&lt;font style=&quot;font-size: 10px;&quot;&gt;Enviar OV&lt;/font&gt;" style="rounded=1;whiteSpace=wrap;html=1;fillColor=#fff2cc;gradientColor=#FFE599;strokeColor=#d6b656;" vertex="1" parent="1">
          <mxGeometry x="890" y="3090" width="95" height="50" as="geometry" />
        </mxCell>
        <mxCell id="HRh51hl5NNQhgZ8yLi9s-190" value="&lt;font style=&quot;font-size: 10px;&quot;&gt;Sim&lt;/font&gt;" style="text;html=1;align=center;verticalAlign=middle;resizable=0;points=[];autosize=1;strokeColor=none;fillColor=none;" vertex="1" parent="1">
          <mxGeometry x="959.5" y="3020" width="40" height="30" as="geometry" />
        </mxCell>
        <mxCell id="HRh51hl5NNQhgZ8yLi9s-191" value="&lt;font style=&quot;font-size: 10px;&quot;&gt;Não&lt;/font&gt;" style="text;html=1;align=center;verticalAlign=middle;resizable=0;points=[];autosize=1;strokeColor=none;fillColor=none;" vertex="1" parent="1">
          <mxGeometry x="640" y="2890" width="40" height="30" as="geometry" />
        </mxCell>
        <mxCell id="HRh51hl5NNQhgZ8yLi9s-192" value="&lt;font style=&quot;font-size: 10px;&quot;&gt;Não&lt;/font&gt;" style="text;html=1;align=center;verticalAlign=middle;resizable=0;points=[];autosize=1;strokeColor=none;fillColor=none;" vertex="1" parent="1">
          <mxGeometry x="775" y="2941" width="40" height="30" as="geometry" />
        </mxCell>
        <mxCell id="HRh51hl5NNQhgZ8yLi9s-193" value="" style="ellipse;whiteSpace=wrap;html=1;aspect=fixed;" vertex="1" parent="1">
          <mxGeometry x="870" y="3479" width="54" height="54" as="geometry" />
        </mxCell>
        <mxCell id="HRh51hl5NNQhgZ8yLi9s-194" value="&lt;b&gt;act&lt;/b&gt;Modificar OV" style="shape=umlFrame;whiteSpace=wrap;html=1;pointerEvents=0;fillColor=default;strokeColor=default;perimeterSpacing=0;strokeWidth=1;gradientColor=none;swimlaneFillColor=none;width=120;height=30;align=left;" vertex="1" parent="1">
          <mxGeometry x="228" y="3291" width="1052" height="431" as="geometry" />
        </mxCell>
        <mxCell id="HRh51hl5NNQhgZ8yLi9s-195" style="edgeStyle=orthogonalEdgeStyle;rounded=0;orthogonalLoop=1;jettySize=auto;html=1;entryX=0;entryY=0.5;entryDx=0;entryDy=0;" edge="1" parent="1" source="HRh51hl5NNQhgZ8yLi9s-196">
          <mxGeometry relative="1" as="geometry">
            <mxPoint x="387" y="3381" as="targetPoint" />
          </mxGeometry>
        </mxCell>
        <mxCell id="HRh51hl5NNQhgZ8yLi9s-196" value="" style="ellipse;whiteSpace=wrap;html=1;aspect=fixed;fillColor=#f5f5f5;gradientColor=#000000;strokeColor=#666666;" vertex="1" parent="1">
          <mxGeometry x="262" y="3361" width="40" height="40" as="geometry" />
        </mxCell>
        <mxCell id="HRh51hl5NNQhgZ8yLi9s-197" style="edgeStyle=orthogonalEdgeStyle;rounded=0;orthogonalLoop=1;jettySize=auto;html=1;entryX=0;entryY=0.5;entryDx=0;entryDy=0;" edge="1" parent="1" source="HRh51hl5NNQhgZ8yLi9s-198" target="HRh51hl5NNQhgZ8yLi9s-208">
          <mxGeometry relative="1" as="geometry" />
        </mxCell>
        <mxCell id="HRh51hl5NNQhgZ8yLi9s-198" value="&lt;font style=&quot;font-size: 10px;&quot;&gt;Consultar senha&lt;/font&gt;" style="rounded=1;whiteSpace=wrap;html=1;fillColor=#fff2cc;gradientColor=#FFE599;strokeColor=#d6b656;" vertex="1" parent="1">
          <mxGeometry x="702" y="3355" width="95" height="50" as="geometry" />
        </mxCell>
        <mxCell id="HRh51hl5NNQhgZ8yLi9s-199" value="" style="ellipse;whiteSpace=wrap;html=1;aspect=fixed;fillColor=#f5f5f5;gradientColor=#000000;strokeColor=#666666;" vertex="1" parent="1">
          <mxGeometry x="877" y="3486" width="40" height="40" as="geometry" />
        </mxCell>
        <mxCell id="HRh51hl5NNQhgZ8yLi9s-200" style="edgeStyle=orthogonalEdgeStyle;rounded=0;orthogonalLoop=1;jettySize=auto;html=1;entryX=0;entryY=0.5;entryDx=0;entryDy=0;" edge="1" parent="1" source="HRh51hl5NNQhgZ8yLi9s-201" target="HRh51hl5NNQhgZ8yLi9s-204">
          <mxGeometry relative="1" as="geometry" />
        </mxCell>
        <mxCell id="HRh51hl5NNQhgZ8yLi9s-201" value="&lt;font style=&quot;font-size: 10px;&quot;&gt;Consultar e-mail&lt;/font&gt;" style="rounded=1;whiteSpace=wrap;html=1;fillColor=#fff2cc;gradientColor=#FFE599;strokeColor=#d6b656;" vertex="1" parent="1">
          <mxGeometry x="387" y="3356" width="95" height="50" as="geometry" />
        </mxCell>
        <mxCell id="HRh51hl5NNQhgZ8yLi9s-202" style="edgeStyle=orthogonalEdgeStyle;rounded=0;orthogonalLoop=1;jettySize=auto;html=1;entryX=0;entryY=0.5;entryDx=0;entryDy=0;" edge="1" parent="1" source="HRh51hl5NNQhgZ8yLi9s-204" target="HRh51hl5NNQhgZ8yLi9s-198">
          <mxGeometry relative="1" as="geometry" />
        </mxCell>
        <mxCell id="HRh51hl5NNQhgZ8yLi9s-256" style="edgeStyle=orthogonalEdgeStyle;rounded=0;orthogonalLoop=1;jettySize=auto;html=1;entryX=0;entryY=0.5;entryDx=0;entryDy=0;" edge="1" parent="1" source="HRh51hl5NNQhgZ8yLi9s-204" target="HRh51hl5NNQhgZ8yLi9s-193">
          <mxGeometry relative="1" as="geometry">
            <Array as="points">
              <mxPoint x="568" y="3506" />
            </Array>
          </mxGeometry>
        </mxCell>
        <mxCell id="HRh51hl5NNQhgZ8yLi9s-204" value="" style="rhombus;whiteSpace=wrap;html=1;fillColor=#fff2cc;gradientColor=#FFE599;strokeColor=#d6b656;" vertex="1" parent="1">
          <mxGeometry x="541" y="3365" width="54" height="30" as="geometry" />
        </mxCell>
        <mxCell id="HRh51hl5NNQhgZ8yLi9s-205" value="&lt;font style=&quot;font-size: 10px;&quot;&gt;E-mail correto?&lt;/font&gt;" style="text;html=1;align=center;verticalAlign=middle;resizable=0;points=[];autosize=1;strokeColor=none;fillColor=none;" vertex="1" parent="1">
          <mxGeometry x="523" y="3335" width="90" height="30" as="geometry" />
        </mxCell>
        <mxCell id="HRh51hl5NNQhgZ8yLi9s-206" style="edgeStyle=orthogonalEdgeStyle;rounded=0;orthogonalLoop=1;jettySize=auto;html=1;entryX=0;entryY=0.5;entryDx=0;entryDy=0;" edge="1" parent="1" source="HRh51hl5NNQhgZ8yLi9s-208" target="HRh51hl5NNQhgZ8yLi9s-211">
          <mxGeometry relative="1" as="geometry" />
        </mxCell>
        <mxCell id="HRh51hl5NNQhgZ8yLi9s-207" style="edgeStyle=orthogonalEdgeStyle;rounded=0;orthogonalLoop=1;jettySize=auto;html=1;entryX=0.5;entryY=0;entryDx=0;entryDy=0;" edge="1" parent="1" source="HRh51hl5NNQhgZ8yLi9s-208" target="HRh51hl5NNQhgZ8yLi9s-193">
          <mxGeometry relative="1" as="geometry">
            <Array as="points">
              <mxPoint x="897" y="3461" />
              <mxPoint x="897" y="3461" />
            </Array>
          </mxGeometry>
        </mxCell>
        <mxCell id="HRh51hl5NNQhgZ8yLi9s-208" value="" style="rhombus;whiteSpace=wrap;html=1;fillColor=#fff2cc;gradientColor=#FFE599;strokeColor=#d6b656;" vertex="1" parent="1">
          <mxGeometry x="870" y="3366" width="54" height="30" as="geometry" />
        </mxCell>
        <mxCell id="HRh51hl5NNQhgZ8yLi9s-209" value="&lt;font style=&quot;font-size: 10px;&quot;&gt;Senha correta?&lt;/font&gt;" style="text;html=1;align=center;verticalAlign=middle;resizable=0;points=[];autosize=1;strokeColor=none;fillColor=none;" vertex="1" parent="1">
          <mxGeometry x="852" y="3336" width="90" height="30" as="geometry" />
        </mxCell>
        <mxCell id="HRh51hl5NNQhgZ8yLi9s-210" style="edgeStyle=orthogonalEdgeStyle;rounded=0;orthogonalLoop=1;jettySize=auto;html=1;entryX=0.5;entryY=0;entryDx=0;entryDy=0;" edge="1" parent="1" source="HRh51hl5NNQhgZ8yLi9s-211" target="HRh51hl5NNQhgZ8yLi9s-216">
          <mxGeometry relative="1" as="geometry" />
        </mxCell>
        <mxCell id="HRh51hl5NNQhgZ8yLi9s-211" value="&lt;font style=&quot;font-size: 10px;&quot;&gt;Consultar OV&lt;/font&gt;" style="rounded=1;whiteSpace=wrap;html=1;fillColor=#fff2cc;gradientColor=#FFE599;strokeColor=#d6b656;" vertex="1" parent="1">
          <mxGeometry x="1017.5" y="3355" width="95" height="50" as="geometry" />
        </mxCell>
        <mxCell id="HRh51hl5NNQhgZ8yLi9s-212" value="&lt;font style=&quot;font-size: 10px;&quot;&gt;Sim&lt;/font&gt;" style="text;html=1;align=center;verticalAlign=middle;resizable=0;points=[];autosize=1;strokeColor=none;fillColor=none;" vertex="1" parent="1">
          <mxGeometry x="952.5" y="3351" width="40" height="30" as="geometry" />
        </mxCell>
        <mxCell id="HRh51hl5NNQhgZ8yLi9s-213" value="&lt;font style=&quot;font-size: 10px;&quot;&gt;Sim&lt;/font&gt;" style="text;html=1;align=center;verticalAlign=middle;resizable=0;points=[];autosize=1;strokeColor=none;fillColor=none;" vertex="1" parent="1">
          <mxGeometry x="633" y="3351" width="40" height="30" as="geometry" />
        </mxCell>
        <mxCell id="HRh51hl5NNQhgZ8yLi9s-214" style="edgeStyle=orthogonalEdgeStyle;rounded=0;orthogonalLoop=1;jettySize=auto;html=1;entryX=0.5;entryY=0;entryDx=0;entryDy=0;" edge="1" parent="1" source="HRh51hl5NNQhgZ8yLi9s-216" target="HRh51hl5NNQhgZ8yLi9s-219">
          <mxGeometry relative="1" as="geometry" />
        </mxCell>
        <mxCell id="HRh51hl5NNQhgZ8yLi9s-215" style="edgeStyle=orthogonalEdgeStyle;rounded=0;orthogonalLoop=1;jettySize=auto;html=1;entryX=1;entryY=0.5;entryDx=0;entryDy=0;" edge="1" parent="1" source="HRh51hl5NNQhgZ8yLi9s-216" target="HRh51hl5NNQhgZ8yLi9s-193">
          <mxGeometry relative="1" as="geometry" />
        </mxCell>
        <mxCell id="HRh51hl5NNQhgZ8yLi9s-216" value="" style="rhombus;whiteSpace=wrap;html=1;fillColor=#fff2cc;gradientColor=#FFE599;strokeColor=#d6b656;" vertex="1" parent="1">
          <mxGeometry x="1038" y="3491" width="54" height="30" as="geometry" />
        </mxCell>
        <mxCell id="HRh51hl5NNQhgZ8yLi9s-217" value="&lt;font style=&quot;font-size: 10px;&quot;&gt;OV existe?&lt;/font&gt;" style="text;html=1;align=center;verticalAlign=middle;resizable=0;points=[];autosize=1;strokeColor=none;fillColor=none;" vertex="1" parent="1">
          <mxGeometry x="1092" y="3491" width="70" height="30" as="geometry" />
        </mxCell>
        <mxCell id="HRh51hl5NNQhgZ8yLi9s-218" style="edgeStyle=orthogonalEdgeStyle;rounded=0;orthogonalLoop=1;jettySize=auto;html=1;entryX=0.5;entryY=1;entryDx=0;entryDy=0;" edge="1" parent="1" source="HRh51hl5NNQhgZ8yLi9s-219" target="HRh51hl5NNQhgZ8yLi9s-193">
          <mxGeometry relative="1" as="geometry" />
        </mxCell>
        <mxCell id="HRh51hl5NNQhgZ8yLi9s-219" value="&lt;font style=&quot;font-size: 10px;&quot;&gt;Modificar OV&lt;/font&gt;" style="rounded=1;whiteSpace=wrap;html=1;fillColor=#fff2cc;gradientColor=#FFE599;strokeColor=#d6b656;" vertex="1" parent="1">
          <mxGeometry x="1017.5" y="3604" width="95" height="50" as="geometry" />
        </mxCell>
        <mxCell id="HRh51hl5NNQhgZ8yLi9s-220" value="&lt;font style=&quot;font-size: 10px;&quot;&gt;Sim&lt;/font&gt;" style="text;html=1;align=center;verticalAlign=middle;resizable=0;points=[];autosize=1;strokeColor=none;fillColor=none;" vertex="1" parent="1">
          <mxGeometry x="1072.5" y="3549" width="40" height="30" as="geometry" />
        </mxCell>
        <mxCell id="HRh51hl5NNQhgZ8yLi9s-221" value="&lt;font style=&quot;font-size: 10px;&quot;&gt;Não&lt;/font&gt;" style="text;html=1;align=center;verticalAlign=middle;resizable=0;points=[];autosize=1;strokeColor=none;fillColor=none;" vertex="1" parent="1">
          <mxGeometry x="702" y="3479" width="40" height="30" as="geometry" />
        </mxCell>
        <mxCell id="HRh51hl5NNQhgZ8yLi9s-222" value="&lt;font style=&quot;font-size: 10px;&quot;&gt;Não&lt;/font&gt;" style="text;html=1;align=center;verticalAlign=middle;resizable=0;points=[];autosize=1;strokeColor=none;fillColor=none;" vertex="1" parent="1">
          <mxGeometry x="902" y="3421" width="40" height="30" as="geometry" />
        </mxCell>
        <mxCell id="HRh51hl5NNQhgZ8yLi9s-223" value="&lt;font style=&quot;font-size: 10px;&quot;&gt;Não&lt;/font&gt;" style="text;html=1;align=center;verticalAlign=middle;resizable=0;points=[];autosize=1;strokeColor=none;fillColor=none;" vertex="1" parent="1">
          <mxGeometry x="959.5" y="3471" width="40" height="30" as="geometry" />
        </mxCell>
        <mxCell id="HRh51hl5NNQhgZ8yLi9s-224" value="" style="ellipse;whiteSpace=wrap;html=1;aspect=fixed;" vertex="1" parent="1">
          <mxGeometry x="870" y="3999" width="54" height="54" as="geometry" />
        </mxCell>
        <mxCell id="HRh51hl5NNQhgZ8yLi9s-225" value="&lt;b&gt;act&lt;/b&gt;Cancelar OV" style="shape=umlFrame;whiteSpace=wrap;html=1;pointerEvents=0;fillColor=default;strokeColor=default;perimeterSpacing=0;strokeWidth=1;gradientColor=none;swimlaneFillColor=none;width=120;height=30;align=left;" vertex="1" parent="1">
          <mxGeometry x="228" y="3811" width="1052" height="431" as="geometry" />
        </mxCell>
        <mxCell id="HRh51hl5NNQhgZ8yLi9s-226" style="edgeStyle=orthogonalEdgeStyle;rounded=0;orthogonalLoop=1;jettySize=auto;html=1;entryX=0;entryY=0.5;entryDx=0;entryDy=0;" edge="1" parent="1" source="HRh51hl5NNQhgZ8yLi9s-227">
          <mxGeometry relative="1" as="geometry">
            <mxPoint x="387" y="3901" as="targetPoint" />
          </mxGeometry>
        </mxCell>
        <mxCell id="HRh51hl5NNQhgZ8yLi9s-227" value="" style="ellipse;whiteSpace=wrap;html=1;aspect=fixed;fillColor=#f5f5f5;gradientColor=#000000;strokeColor=#666666;" vertex="1" parent="1">
          <mxGeometry x="262" y="3881" width="40" height="40" as="geometry" />
        </mxCell>
        <mxCell id="HRh51hl5NNQhgZ8yLi9s-228" style="edgeStyle=orthogonalEdgeStyle;rounded=0;orthogonalLoop=1;jettySize=auto;html=1;entryX=0;entryY=0.5;entryDx=0;entryDy=0;" edge="1" parent="1" source="HRh51hl5NNQhgZ8yLi9s-229" target="HRh51hl5NNQhgZ8yLi9s-239">
          <mxGeometry relative="1" as="geometry" />
        </mxCell>
        <mxCell id="HRh51hl5NNQhgZ8yLi9s-229" value="&lt;font style=&quot;font-size: 10px;&quot;&gt;Consultar senha&lt;/font&gt;" style="rounded=1;whiteSpace=wrap;html=1;fillColor=#fff2cc;gradientColor=#FFE599;strokeColor=#d6b656;" vertex="1" parent="1">
          <mxGeometry x="702" y="3875" width="95" height="50" as="geometry" />
        </mxCell>
        <mxCell id="HRh51hl5NNQhgZ8yLi9s-230" value="" style="ellipse;whiteSpace=wrap;html=1;aspect=fixed;fillColor=#f5f5f5;gradientColor=#000000;strokeColor=#666666;" vertex="1" parent="1">
          <mxGeometry x="877" y="4006" width="40" height="40" as="geometry" />
        </mxCell>
        <mxCell id="HRh51hl5NNQhgZ8yLi9s-231" style="edgeStyle=orthogonalEdgeStyle;rounded=0;orthogonalLoop=1;jettySize=auto;html=1;entryX=0;entryY=0.5;entryDx=0;entryDy=0;" edge="1" parent="1" source="HRh51hl5NNQhgZ8yLi9s-232" target="HRh51hl5NNQhgZ8yLi9s-235">
          <mxGeometry relative="1" as="geometry" />
        </mxCell>
        <mxCell id="HRh51hl5NNQhgZ8yLi9s-232" value="&lt;font style=&quot;font-size: 10px;&quot;&gt;Consultar e-mail&lt;/font&gt;" style="rounded=1;whiteSpace=wrap;html=1;fillColor=#fff2cc;gradientColor=#FFE599;strokeColor=#d6b656;" vertex="1" parent="1">
          <mxGeometry x="387" y="3876" width="95" height="50" as="geometry" />
        </mxCell>
        <mxCell id="HRh51hl5NNQhgZ8yLi9s-233" style="edgeStyle=orthogonalEdgeStyle;rounded=0;orthogonalLoop=1;jettySize=auto;html=1;entryX=0;entryY=0.5;entryDx=0;entryDy=0;" edge="1" parent="1" source="HRh51hl5NNQhgZ8yLi9s-235" target="HRh51hl5NNQhgZ8yLi9s-229">
          <mxGeometry relative="1" as="geometry" />
        </mxCell>
        <mxCell id="HRh51hl5NNQhgZ8yLi9s-234" style="edgeStyle=orthogonalEdgeStyle;rounded=0;orthogonalLoop=1;jettySize=auto;html=1;entryX=0;entryY=0.5;entryDx=0;entryDy=0;" edge="1" parent="1" source="HRh51hl5NNQhgZ8yLi9s-235" target="HRh51hl5NNQhgZ8yLi9s-224">
          <mxGeometry relative="1" as="geometry">
            <Array as="points">
              <mxPoint x="568" y="4027" />
            </Array>
          </mxGeometry>
        </mxCell>
        <mxCell id="HRh51hl5NNQhgZ8yLi9s-235" value="" style="rhombus;whiteSpace=wrap;html=1;fillColor=#fff2cc;gradientColor=#FFE599;strokeColor=#d6b656;" vertex="1" parent="1">
          <mxGeometry x="541" y="3885" width="54" height="30" as="geometry" />
        </mxCell>
        <mxCell id="HRh51hl5NNQhgZ8yLi9s-236" value="&lt;font style=&quot;font-size: 10px;&quot;&gt;E-mail correto?&lt;/font&gt;" style="text;html=1;align=center;verticalAlign=middle;resizable=0;points=[];autosize=1;strokeColor=none;fillColor=none;" vertex="1" parent="1">
          <mxGeometry x="523" y="3855" width="90" height="30" as="geometry" />
        </mxCell>
        <mxCell id="HRh51hl5NNQhgZ8yLi9s-237" style="edgeStyle=orthogonalEdgeStyle;rounded=0;orthogonalLoop=1;jettySize=auto;html=1;entryX=0;entryY=0.5;entryDx=0;entryDy=0;" edge="1" parent="1" source="HRh51hl5NNQhgZ8yLi9s-239" target="HRh51hl5NNQhgZ8yLi9s-242">
          <mxGeometry relative="1" as="geometry" />
        </mxCell>
        <mxCell id="HRh51hl5NNQhgZ8yLi9s-238" style="edgeStyle=orthogonalEdgeStyle;rounded=0;orthogonalLoop=1;jettySize=auto;html=1;entryX=0.5;entryY=0;entryDx=0;entryDy=0;" edge="1" parent="1" source="HRh51hl5NNQhgZ8yLi9s-239" target="HRh51hl5NNQhgZ8yLi9s-224">
          <mxGeometry relative="1" as="geometry">
            <Array as="points">
              <mxPoint x="897" y="3981" />
              <mxPoint x="897" y="3981" />
            </Array>
          </mxGeometry>
        </mxCell>
        <mxCell id="HRh51hl5NNQhgZ8yLi9s-239" value="" style="rhombus;whiteSpace=wrap;html=1;fillColor=#fff2cc;gradientColor=#FFE599;strokeColor=#d6b656;" vertex="1" parent="1">
          <mxGeometry x="870" y="3886" width="54" height="30" as="geometry" />
        </mxCell>
        <mxCell id="HRh51hl5NNQhgZ8yLi9s-240" value="&lt;font style=&quot;font-size: 10px;&quot;&gt;Senha correta?&lt;/font&gt;" style="text;html=1;align=center;verticalAlign=middle;resizable=0;points=[];autosize=1;strokeColor=none;fillColor=none;" vertex="1" parent="1">
          <mxGeometry x="852" y="3856" width="90" height="30" as="geometry" />
        </mxCell>
        <mxCell id="HRh51hl5NNQhgZ8yLi9s-241" style="edgeStyle=orthogonalEdgeStyle;rounded=0;orthogonalLoop=1;jettySize=auto;html=1;entryX=0.5;entryY=0;entryDx=0;entryDy=0;" edge="1" parent="1" source="HRh51hl5NNQhgZ8yLi9s-242" target="HRh51hl5NNQhgZ8yLi9s-247">
          <mxGeometry relative="1" as="geometry" />
        </mxCell>
        <mxCell id="HRh51hl5NNQhgZ8yLi9s-242" value="&lt;font style=&quot;font-size: 10px;&quot;&gt;Consultar OV&lt;/font&gt;" style="rounded=1;whiteSpace=wrap;html=1;fillColor=#fff2cc;gradientColor=#FFE599;strokeColor=#d6b656;" vertex="1" parent="1">
          <mxGeometry x="1017.5" y="3875" width="95" height="50" as="geometry" />
        </mxCell>
        <mxCell id="HRh51hl5NNQhgZ8yLi9s-243" value="&lt;font style=&quot;font-size: 10px;&quot;&gt;Sim&lt;/font&gt;" style="text;html=1;align=center;verticalAlign=middle;resizable=0;points=[];autosize=1;strokeColor=none;fillColor=none;" vertex="1" parent="1">
          <mxGeometry x="952.5" y="3871" width="40" height="30" as="geometry" />
        </mxCell>
        <mxCell id="HRh51hl5NNQhgZ8yLi9s-244" value="&lt;font style=&quot;font-size: 10px;&quot;&gt;Sim&lt;/font&gt;" style="text;html=1;align=center;verticalAlign=middle;resizable=0;points=[];autosize=1;strokeColor=none;fillColor=none;" vertex="1" parent="1">
          <mxGeometry x="633" y="3871" width="40" height="30" as="geometry" />
        </mxCell>
        <mxCell id="HRh51hl5NNQhgZ8yLi9s-245" style="edgeStyle=orthogonalEdgeStyle;rounded=0;orthogonalLoop=1;jettySize=auto;html=1;entryX=0.5;entryY=0;entryDx=0;entryDy=0;" edge="1" parent="1" source="HRh51hl5NNQhgZ8yLi9s-247" target="HRh51hl5NNQhgZ8yLi9s-250">
          <mxGeometry relative="1" as="geometry" />
        </mxCell>
        <mxCell id="HRh51hl5NNQhgZ8yLi9s-246" style="edgeStyle=orthogonalEdgeStyle;rounded=0;orthogonalLoop=1;jettySize=auto;html=1;entryX=1;entryY=0.5;entryDx=0;entryDy=0;" edge="1" parent="1" source="HRh51hl5NNQhgZ8yLi9s-247" target="HRh51hl5NNQhgZ8yLi9s-224">
          <mxGeometry relative="1" as="geometry" />
        </mxCell>
        <mxCell id="HRh51hl5NNQhgZ8yLi9s-247" value="" style="rhombus;whiteSpace=wrap;html=1;fillColor=#fff2cc;gradientColor=#FFE599;strokeColor=#d6b656;" vertex="1" parent="1">
          <mxGeometry x="1038" y="4011" width="54" height="30" as="geometry" />
        </mxCell>
        <mxCell id="HRh51hl5NNQhgZ8yLi9s-248" value="&lt;font style=&quot;font-size: 10px;&quot;&gt;OV existe?&lt;/font&gt;" style="text;html=1;align=center;verticalAlign=middle;resizable=0;points=[];autosize=1;strokeColor=none;fillColor=none;" vertex="1" parent="1">
          <mxGeometry x="1092" y="4011" width="70" height="30" as="geometry" />
        </mxCell>
        <mxCell id="HRh51hl5NNQhgZ8yLi9s-249" style="edgeStyle=orthogonalEdgeStyle;rounded=0;orthogonalLoop=1;jettySize=auto;html=1;entryX=0.5;entryY=1;entryDx=0;entryDy=0;" edge="1" parent="1" source="HRh51hl5NNQhgZ8yLi9s-250" target="HRh51hl5NNQhgZ8yLi9s-224">
          <mxGeometry relative="1" as="geometry" />
        </mxCell>
        <mxCell id="HRh51hl5NNQhgZ8yLi9s-250" value="&lt;font style=&quot;font-size: 10px;&quot;&gt;Cancelar OV&lt;/font&gt;" style="rounded=1;whiteSpace=wrap;html=1;fillColor=#fff2cc;gradientColor=#FFE599;strokeColor=#d6b656;" vertex="1" parent="1">
          <mxGeometry x="1017.5" y="4124" width="95" height="50" as="geometry" />
        </mxCell>
        <mxCell id="HRh51hl5NNQhgZ8yLi9s-251" value="&lt;font style=&quot;font-size: 10px;&quot;&gt;Sim&lt;/font&gt;" style="text;html=1;align=center;verticalAlign=middle;resizable=0;points=[];autosize=1;strokeColor=none;fillColor=none;" vertex="1" parent="1">
          <mxGeometry x="1072.5" y="4069" width="40" height="30" as="geometry" />
        </mxCell>
        <mxCell id="HRh51hl5NNQhgZ8yLi9s-252" value="&lt;font style=&quot;font-size: 10px;&quot;&gt;Não&lt;/font&gt;" style="text;html=1;align=center;verticalAlign=middle;resizable=0;points=[];autosize=1;strokeColor=none;fillColor=none;" vertex="1" parent="1">
          <mxGeometry x="702" y="3999" width="40" height="30" as="geometry" />
        </mxCell>
        <mxCell id="HRh51hl5NNQhgZ8yLi9s-253" value="&lt;font style=&quot;font-size: 10px;&quot;&gt;Não&lt;/font&gt;" style="text;html=1;align=center;verticalAlign=middle;resizable=0;points=[];autosize=1;strokeColor=none;fillColor=none;" vertex="1" parent="1">
          <mxGeometry x="902" y="3941" width="40" height="30" as="geometry" />
        </mxCell>
        <mxCell id="HRh51hl5NNQhgZ8yLi9s-254" value="&lt;font style=&quot;font-size: 10px;&quot;&gt;Não&lt;/font&gt;" style="text;html=1;align=center;verticalAlign=middle;resizable=0;points=[];autosize=1;strokeColor=none;fillColor=none;" vertex="1" parent="1">
          <mxGeometry x="959.5" y="3991" width="40" height="30" as="geometry" />
        </mxCell>
        <mxCell id="HRh51hl5NNQhgZ8yLi9s-262" style="edgeStyle=orthogonalEdgeStyle;rounded=0;orthogonalLoop=1;jettySize=auto;html=1;entryX=1;entryY=0.5;entryDx=0;entryDy=0;" edge="1" parent="1" source="HRh51hl5NNQhgZ8yLi9s-258" target="HRh51hl5NNQhgZ8yLi9s-123">
          <mxGeometry relative="1" as="geometry">
            <Array as="points">
              <mxPoint x="1065" y="2075" />
            </Array>
          </mxGeometry>
        </mxCell>
        <mxCell id="HRh51hl5NNQhgZ8yLi9s-258" value="" style="rhombus;whiteSpace=wrap;html=1;fillColor=#fff2cc;gradientColor=#FFE599;strokeColor=#d6b656;" vertex="1" parent="1">
          <mxGeometry x="1038" y="2020" width="54" height="30" as="geometry" />
        </mxCell>
        <mxCell id="HRh51hl5NNQhgZ8yLi9s-259" value="&lt;font style=&quot;font-size: 10px;&quot;&gt;Saldo suficiente?&lt;/font&gt;" style="text;html=1;align=center;verticalAlign=middle;resizable=0;points=[];autosize=1;strokeColor=none;fillColor=none;" vertex="1" parent="1">
          <mxGeometry x="1090" y="2020" width="100" height="30" as="geometry" />
        </mxCell>
        <mxCell id="HRh51hl5NNQhgZ8yLi9s-263" value="&lt;font style=&quot;font-size: 10px;&quot;&gt;Sim&lt;/font&gt;" style="text;html=1;align=center;verticalAlign=middle;resizable=0;points=[];autosize=1;strokeColor=none;fillColor=none;" vertex="1" parent="1">
          <mxGeometry x="998" y="2080" width="40" height="30" as="geometry" />
        </mxCell>
        <mxCell id="HRh51hl5NNQhgZ8yLi9s-266" value="" style="endArrow=classic;html=1;rounded=0;exitX=0;exitY=0.5;exitDx=0;exitDy=0;entryX=1;entryY=1;entryDx=0;entryDy=0;" edge="1" parent="1" source="HRh51hl5NNQhgZ8yLi9s-258" target="HRh51hl5NNQhgZ8yLi9s-88">
          <mxGeometry width="50" height="50" relative="1" as="geometry">
            <mxPoint x="810" y="1910" as="sourcePoint" />
            <mxPoint x="860" y="1860" as="targetPoint" />
          </mxGeometry>
        </mxCell>
        <mxCell id="HRh51hl5NNQhgZ8yLi9s-267" value="&lt;font style=&quot;font-size: 10px;&quot;&gt;Não&lt;/font&gt;" style="text;html=1;align=center;verticalAlign=middle;resizable=0;points=[];autosize=1;strokeColor=none;fillColor=none;" vertex="1" parent="1">
          <mxGeometry x="969.5" y="1960" width="40" height="30" as="geometry" />
        </mxCell>
      </root>
    </mxGraphModel>
  </diagram>
</mxfile>
